<svg width="49" height="48" viewBox="0 0 49 48" fill="none" xmlns="http://www.w3.org/2000/svg">
<path d="M40.667 8H8.66699C6.46099 8 4.66699 9.794 4.66699 12V36C4.66699 38.206 6.46099 40 8.66699 40H40.667C42.873 40 44.667 38.206 44.667 36V12C44.667 9.794 42.873 8 40.667 8ZM40.667 12V13.022L24.667 25.468L8.66699 13.024V12H40.667ZM8.66699 36V18.088L23.439 29.578C23.7892 29.8531 24.2217 30.0026 24.667 30.0026C25.1123 30.0026 25.5448 29.8531 25.895 29.578L40.667 18.088L40.671 36H8.66699Z" fill="black"/>
</svg>
