<svg width="49" height="48" viewBox="0 0 49 48" fill="none" xmlns="http://www.w3.org/2000/svg">
<path d="M24.3341 28C28.7461 28 32.3341 24.412 32.3341 20C32.3341 15.588 28.7461 12 24.3341 12C19.9221 12 16.3341 15.588 16.3341 20C16.3341 24.412 19.9221 28 24.3341 28ZM24.3341 16C26.5401 16 28.3341 17.794 28.3341 20C28.3341 22.206 26.5401 24 24.3341 24C22.1281 24 20.3341 22.206 20.3341 20C20.3341 17.794 22.1281 16 24.3341 16Z" fill="black"/>
<path d="M23.1742 43.628C23.5127 43.8697 23.9182 43.9997 24.3342 43.9997C24.7501 43.9997 25.1557 43.8697 25.4942 43.628C26.1022 43.198 40.3922 32.88 40.3342 20C40.3342 11.178 33.1562 4 24.3342 4C15.5122 4 8.33416 11.178 8.33416 19.99C8.27616 32.88 22.5662 43.198 23.1742 43.628ZM24.3342 8C30.9522 8 36.3342 13.382 36.3342 20.01C36.3762 28.886 27.5582 36.856 24.3342 39.47C21.1122 36.854 12.2922 28.882 12.3342 20C12.3342 13.382 17.7162 8 24.3342 8Z" fill="black"/>
</svg>
