<svg width="80" height="80" viewBox="0 0 80 80" fill="none" xmlns="http://www.w3.org/2000/svg">
<circle cx="40" cy="40" r="40" fill="#D9D9D9"/>
<path d="M37.8125 26.25C35.9175 26.25 34.375 27.7925 34.375 29.6875V31.25H30.3125C28.4137 31.25 26.875 32.7887 26.875 34.6875V50.3125C26.875 52.2113 28.4137 53.75 30.3125 53.75H37.8125C38.33 53.75 38.75 53.33 38.75 52.8125V48.75C38.75 48.405 39.03 48.125 39.375 48.125H40.625C40.97 48.125 41.25 48.405 41.25 48.75V52.8125C41.25 53.33 41.67 53.75 42.1875 53.75H49.6875C51.5863 53.75 53.125 52.2113 53.125 50.3125V34.6875C53.125 32.7887 51.5863 31.25 49.6875 31.25H45.625V29.6875C45.625 27.7925 44.0825 26.25 42.1875 26.25H37.8125ZM37.5 28.125H37.8125H42.1875H42.5C43.1906 28.125 43.75 28.6844 43.75 29.375V29.6875V32.1875V34.375C43.75 35.0656 43.1906 35.625 42.5 35.625H37.5C36.8094 35.625 36.25 35.0656 36.25 34.375V32.1875V29.6875V29.375C36.25 28.6844 36.8094 28.125 37.5 28.125ZM40 29.375C39.4825 29.375 39.0625 29.795 39.0625 30.3125V30.9375H38.4375C37.92 30.9375 37.5 31.3575 37.5 31.875C37.5 32.3925 37.92 32.8125 38.4375 32.8125H39.0625V33.4375C39.0625 33.955 39.4825 34.375 40 34.375C40.5175 34.375 40.9375 33.955 40.9375 33.4375V32.8125H41.5625C42.08 32.8125 42.5 32.3925 42.5 31.875C42.5 31.3575 42.08 30.9375 41.5625 30.9375H40.9375V30.3125C40.9375 29.795 40.5175 29.375 40 29.375ZM31.875 38.75H33.125C33.47 38.75 33.75 39.03 33.75 39.375V40.625C33.75 40.97 33.47 41.25 33.125 41.25H31.875C31.53 41.25 31.25 40.97 31.25 40.625V39.375C31.25 39.03 31.53 38.75 31.875 38.75ZM36.875 38.75H38.125C38.47 38.75 38.75 39.03 38.75 39.375V40.625C38.75 40.97 38.47 41.25 38.125 41.25H36.875C36.53 41.25 36.25 40.97 36.25 40.625V39.375C36.25 39.03 36.53 38.75 36.875 38.75ZM41.875 38.75H43.125C43.47 38.75 43.75 39.03 43.75 39.375V40.625C43.75 40.97 43.47 41.25 43.125 41.25H41.875C41.53 41.25 41.25 40.97 41.25 40.625V39.375C41.25 39.03 41.53 38.75 41.875 38.75ZM46.875 38.75H48.125C48.47 38.75 48.75 39.03 48.75 39.375V40.625C48.75 40.97 48.47 41.25 48.125 41.25H46.875C46.53 41.25 46.25 40.97 46.25 40.625V39.375C46.25 39.03 46.53 38.75 46.875 38.75ZM31.875 42.5H33.125C33.47 42.5 33.75 42.78 33.75 43.125V44.375C33.75 44.72 33.47 45 33.125 45H31.875C31.53 45 31.25 44.72 31.25 44.375V43.125C31.25 42.78 31.53 42.5 31.875 42.5ZM36.875 42.5H38.125C38.47 42.5 38.75 42.78 38.75 43.125V44.375C38.75 44.72 38.47 45 38.125 45H36.875C36.53 45 36.25 44.72 36.25 44.375V43.125C36.25 42.78 36.53 42.5 36.875 42.5ZM41.875 42.5H43.125C43.47 42.5 43.75 42.78 43.75 43.125V44.375C43.75 44.72 43.47 45 43.125 45H41.875C41.53 45 41.25 44.72 41.25 44.375V43.125C41.25 42.78 41.53 42.5 41.875 42.5ZM46.875 42.5H48.125C48.47 42.5 48.75 42.78 48.75 43.125V44.375C48.75 44.72 48.47 45 48.125 45H46.875C46.53 45 46.25 44.72 46.25 44.375V43.125C46.25 42.78 46.53 42.5 46.875 42.5ZM31.875 46.25H33.125C33.47 46.25 33.75 46.53 33.75 46.875V48.125C33.75 48.47 33.47 48.75 33.125 48.75H31.875C31.53 48.75 31.25 48.47 31.25 48.125V46.875C31.25 46.53 31.53 46.25 31.875 46.25ZM46.875 46.25H48.125C48.47 46.25 48.75 46.53 48.75 46.875V48.125C48.75 48.47 48.47 48.75 48.125 48.75H46.875C46.53 48.75 46.25 48.47 46.25 48.125V46.875C46.25 46.53 46.53 46.25 46.875 46.25Z" fill="#A081AD"/>
</svg>
