<svg width="80" height="80" viewBox="0 0 80 80" fill="none" xmlns="http://www.w3.org/2000/svg">
<circle cx="40" cy="40" r="40" fill="#D9D9D9"/>
<path d="M45.625 38.125V37.7137C45.625 33.8706 40.69 30.8825 40.4806 30.7575C40.1844 30.5806 39.8162 30.5806 39.52 30.7575C39.31 30.8825 34.375 33.87 34.375 37.7137V38.125H45.625ZM44.6875 39.375H35.9375C34.0387 39.375 31.875 40.9137 31.875 42.8125V51.5625C31.875 52.08 32.295 52.5 32.8125 52.5H35.9375C36.455 52.5 36.875 52.08 36.875 51.5625V48.5156C36.875 45.4737 39.1731 44.1594 39.8706 43.8325C39.955 43.7931 40.0456 43.7931 40.13 43.8325C40.8275 44.1606 43.125 45.475 43.125 48.5156V51.5625C43.125 52.08 43.545 52.5 44.0625 52.5H47.1875C47.705 52.5 48.125 52.08 48.125 51.5625V42.8125C48.125 40.9137 46.5863 39.375 44.6875 39.375ZM30.5919 33.2231L29.3587 27.9819C29.2919 27.6994 29.04 27.5 28.75 27.5C28.46 27.5 28.2081 27.6994 28.1413 27.9819L26.9081 33.2231C26.8969 33.3187 26.8862 33.4131 26.875 33.5094V51.5625C26.875 52.08 27.295 52.5 27.8125 52.5H29.6875C30.205 52.5 30.625 52.08 30.625 51.5625V33.5094C30.6137 33.4131 30.6031 33.3187 30.5919 33.2231ZM53.7169 33.2231L52.4837 27.9819C52.4169 27.6994 52.165 27.5 51.875 27.5C51.585 27.5 51.3331 27.6994 51.2663 27.9819L50.0331 33.2231C50.0219 33.3187 50.0112 33.4137 50 33.5094V51.5625C50 52.08 50.42 52.5 50.9375 52.5H52.8125C53.33 52.5 53.75 52.08 53.75 51.5625V33.5094C53.7388 33.4131 53.7281 33.3187 53.7169 33.2231Z" fill="#A081AD"/>
</svg>
