<svg width="80" height="80" viewBox="0 0 80 80" fill="none" xmlns="http://www.w3.org/2000/svg">
<circle cx="40" cy="40" r="40" fill="#D9D9D9"/>
<path d="M38.2227 30.6482C36.7664 30.6482 35.5 32.0277 35.5 33.8208C35.5 34.6986 35.8196 35.5342 36.3516 36.1218L36.3115 36.0742L39.4629 40.116C39.5328 40.2056 39.6163 40.2768 39.7085 40.3254C39.8008 40.374 39.8999 40.3991 40 40.3991C40.1001 40.3991 40.1992 40.374 40.2915 40.3254C40.3837 40.2768 40.4672 40.2056 40.5371 40.116L43.6914 36.0718L43.6504 36.1194C44.1808 35.5331 44.5 34.6982 44.5 33.8208C44.5 32.0273 43.2333 30.6494 41.7773 30.6494C41.1062 30.6494 40.5003 31.0062 40 31.5344C39.4997 31.0061 38.8939 30.6482 38.2227 30.6482ZM29.9248 33.125C29.4318 33.125 29 33.6892 29 34.2542C29 35.0554 29.1778 38.1551 29.2383 39.1382C29.4753 42.9944 30.0378 44.5177 30.7803 45.2014C31.8028 46.1427 32.4409 46.9784 33.0869 47.6697C33.8289 48.2484 34 49.84 34 50.3125C34 50.8306 34.336 51.25 34.75 51.25H38.75C39.164 51.25 39.5 50.83 39.5 50.3125V45.5164C39.5 44.2932 38.9961 43.1361 38.1436 42.5342C38.1001 42.5029 38.0599 42.4767 38.0234 42.4548C37.5039 42.1461 36.9668 41.8274 36.1973 40.8655L34.7002 39.1602C34.1952 38.612 33.4141 38.6792 32.9766 39.3555C32.6006 39.9367 32.6625 40.792 33.0605 41.3501L34.7793 43.7488C35.0093 44.0707 34.986 44.5654 34.7285 44.8523C34.6095 44.9854 34.462 45.05 34.3135 45.05C34.1415 45.05 33.9697 44.9619 33.8467 44.7888L32.085 42.3303C31.1955 41.0828 31.2752 39.1529 32.2637 38.0286C32.3047 37.9823 32.3515 37.949 32.3945 37.9065C32.1265 37.0465 31.8344 36.0451 31.5264 35.0745C31.0769 33.6576 30.6743 33.125 29.9248 33.125ZM50.0752 33.125C49.3257 33.125 48.9231 33.6576 48.4736 35.0745C48.1656 36.0451 47.8735 37.0465 47.6055 37.9065C47.6485 37.949 47.6953 37.9823 47.7363 38.0286C48.7248 39.1529 48.8045 41.0828 47.915 42.3303L46.1533 44.7888C46.0303 44.9619 45.8585 45.05 45.6865 45.05C45.538 45.05 45.3905 44.9854 45.2715 44.8523C45.014 44.5654 44.9907 44.0707 45.2207 43.7488L46.9395 41.3501C47.3375 40.792 47.3994 39.9367 47.0234 39.3555C46.5859 38.6792 45.8048 38.612 45.2998 39.1602L43.8027 40.8655C43.0332 41.8274 42.4961 42.1461 41.9766 42.4548C41.9401 42.4767 41.8999 42.5029 41.8564 42.5342C41.0039 43.1361 40.5 44.2932 40.5 45.5164V50.3125C40.5 50.83 40.836 51.25 41.25 51.25H45.25C45.664 51.25 46 50.8306 46 50.3125C46 49.84 46.1711 48.2484 46.9131 47.6697C47.5591 46.9784 48.1972 46.1427 49.2197 45.2014C49.9622 44.5177 50.5247 42.9944 50.7617 39.1382C50.8222 38.1551 51 35.0554 51 34.2542C51 33.6892 50.5682 33.125 50.0752 33.125Z" fill="#A081AD"/>
</svg>
