<svg width="80" height="80" viewBox="0 0 80 80" fill="none" xmlns="http://www.w3.org/2000/svg">
<circle cx="40" cy="40" r="40" fill="#D9D9D9"/>
<path d="M52.1044 38.7531C51.4632 38.7531 50.7594 39.175 49.2632 39.9513C48.0238 40.595 46.8775 41.2069 46.1494 41.6531C46.2125 41.9269 46.25 42.2106 46.25 42.5031C46.25 44.5712 44.5675 46.2531 42.5 46.2531H37.8125C37.295 46.2531 36.875 45.8337 36.875 45.3156C36.875 44.7975 37.295 44.3781 37.8125 44.3781H42.5C43.5338 44.3781 44.375 43.5369 44.375 42.5031C44.375 41.9425 44.1225 41.4444 43.7313 41.1C43.2869 40.8063 42.7594 40.6281 42.1875 40.6281H39.4419H39.0625C39.0444 40.6281 39.0275 40.6237 39.0094 40.6225C37.3619 40.5969 36.5707 40.4269 35.875 40.2738C35.2425 40.1344 34.645 40.0031 33.6419 40.0031C29.0594 40.0031 26.4432 45.6287 26.3344 45.8681C26.1932 46.1781 26.2313 46.5394 26.4332 46.8131L30.8082 52.7469C30.9863 52.9888 31.2669 53.125 31.5606 53.125C31.62 53.125 31.6788 53.1194 31.7382 53.1081C32.0919 53.0406 32.3781 52.7731 32.47 52.425C32.5194 52.2406 32.9969 50.6281 34.6875 50.6281C35.9075 50.6281 37.1694 50.7856 38.39 50.9375C39.6332 51.0931 40.9194 51.2531 42.1875 51.2531C43.9144 51.2531 45.1575 49.9288 48.75 46.2531C53.3138 41.5838 53.75 41.1756 53.75 40.25C53.75 39.4487 53.0469 38.7531 52.1044 38.7531ZM48.125 30.625C48.125 31.9563 47.2938 33.0875 46.125 33.5437C45.6813 31.5312 44.0938 29.9437 42.0813 29.5C42.5375 28.3312 43.6688 27.5 45 27.5C46.725 27.5 48.125 28.9 48.125 30.625ZM40.9375 30.625C39.8601 30.625 38.8268 31.053 38.0649 31.8149C37.303 32.5767 36.875 33.6101 36.875 34.6875C36.875 35.7649 37.303 36.7983 38.0649 37.5601C38.8268 38.322 39.8601 38.75 40.9375 38.75C42.015 38.75 43.0483 38.322 43.8101 37.5601C44.572 36.7983 45 35.7649 45 34.6875C45 33.6101 44.572 32.5767 43.8101 31.8149C43.0483 31.053 42.015 30.625 40.9375 30.625Z" fill="#A081AD"/>
</svg>
